<svg width="44" height="36" viewBox="0 0 44 36" fill="none" xmlns="http://www.w3.org/2000/svg">
<g id="Group 1">
<path id="Rectangle 4 (Stroke)" fill-rule="evenodd" clip-rule="evenodd" d="M0.666748 5C0.666748 2.60676 2.60685 0.666664 5.00008 0.666664H39.0001C41.3933 0.666664 43.3334 2.60676 43.3334 5V31.6667C43.3334 34.0599 41.3933 36 39.0001 36H5.00008C2.60685 36 0.666748 34.0599 0.666748 31.6667V5ZM5.00008 2.66666C3.71142 2.66666 2.66675 3.71133 2.66675 5V31.6667C2.66675 32.9553 3.71142 34 5.00008 34H39.0001C40.2887 34 41.3334 32.9553 41.3334 31.6667V5C41.3334 3.71133 40.2887 2.66666 39.0001 2.66666H5.00008Z" fill="#B2B9C4"/>
<ellipse id="Ellipse 1" cx="10.6668" cy="10" rx="4.33333" ry="4.33333" fill="#B2B9C4"/>
<path id="Vector 2" d="M6.3335 28.3333V26.357C6.3335 25.915 6.50909 25.4911 6.82165 25.1785L12.2098 19.7904C12.8389 19.1613 13.8511 19.1372 14.5094 19.7357L15.8407 20.946C16.4923 21.5383 17.4923 21.5216 18.1236 20.9077L27.8219 11.4789C28.4753 10.8436 29.5178 10.851 30.1622 11.4954L37.8453 19.1785C38.1579 19.4911 38.3335 19.915 38.3335 20.357V28.3333C38.3335 29.2538 37.5873 30 36.6668 30H8.00016C7.07969 30 6.3335 29.2538 6.3335 28.3333Z" fill="#B2B9C4"/>
</g>
</svg>
